{
	"asset":{
		"generator":"Khronos glTF Blender I/O v3.6.27",
		"version":"2.0"
	},
	"scene":0,
	"scenes":[
		{
			"name":"Scene",
			"nodes":[
				0,
				1,
				2,
				3,
				4,
				5,
				6,
				7,
				8,
				9,
				10,
				11
			]
		}
	],
	"nodes":[
		{
			"mesh":0,
			"name":"Cube.001",
			"rotation":[
				0,
				0.7071068286895752,
				0,
				0.7071068286895752
			],
			"scale":[
				0.5,
				0.5,
				1
			],
			"translation":[
				-0.9657635688781738,
				0.5,
				-2.4790921211242676
			]
		},
		{
			"mesh":1,
			"name":"Cube.002",
			"scale":[
				0.3499999940395355,
				0.44999998807907104,
				0.5
			],
			"translation":[
				0.6649653911590576,
				0.44999998807907104,
				-2.4713852405548096
			]
		},
		{
			"mesh":2,
			"name":"Cube.003",
			"scale":[
				0.800000011920929,
				0.25,
				1.5
			],
			"translation":[
				2.0514557361602783,
				0.25,
				-1.4609122276306152
			]
		},
		{
			"mesh":3,
			"name":"Cube.004",
			"scale":[
				0.2810756266117096,
				0.06201469525694847,
				0.163503035902977
			],
			"translation":[
				1.7326031923294067,
				0.6018209457397461,
				-2.414142608642578
			]
		},
		{
			"mesh":4,
			"name":"Cube.005",
			"scale":[
				0.2810756266117096,
				0.06201469525694847,
				0.163503035902977
			],
			"translation":[
				2.3521761894226074,
				0.601841151714325,
				-2.414336919784546
			]
		},
		{
			"mesh":5,
			"name":"Cube.006",
			"scale":[
				0.3499999940395355,
				0.25,
				0.30000001192092896
			],
			"translation":[
				-2.6037979125976562,
				0.22499999403953552,
				1.8933556079864502
			]
		},
		{
			"mesh":6,
			"name":"Cube.007",
			"scale":[
				0.10207434743642807,
				0.07291024923324585,
				0.08749230206012726
			],
			"translation":[
				-2.846015214920044,
				0.22499999403953552,
				1.8857803344726562
			]
		},
		{
			"mesh":7,
			"name":"Cube.008",
			"scale":[
				0.3499999940395355,
				1.2000000476837158,
				1
			],
			"translation":[
				2.57851243019104,
				1.2000000476837158,
				1.510918378829956
			]
		},
		{
			"mesh":8,
			"name":"dude.001"
		},
		{
			"mesh":9,
			"name":"dude.002",
			"rotation":[
				-0.7071068286895752,
				0,
				0,
				0.7071068286895752
			],
			"translation":[
				2.0523147583007812,
				0.7014756202697754,
				-0.5074096322059631
			]
		},
		{
			"mesh":10,
			"name":"room",
			"scale":[
				1,
				0.699999988079071,
				1
			]
		},
		{
			"mesh":11,
			"name":"Cube",
			"scale":[
				0.5,
				0.5,
				1.5
			],
			"translation":[
				-2.4804866313934326,
				0.5,
				-1.4780436754226685
			]
		}
	],
	"materials":[
		{
			"doubleSided":true,
			"name":"Material.001",
			"pbrMetallicRoughness":{
				"baseColorFactor":[
					0.800000011920929,
					0.800000011920929,
					0.800000011920929,
					1
				],
				"metallicFactor":0,
				"roughnessFactor":0.5
			}
		},
		{
			"doubleSided":true,
			"name":"Material.002",
			"pbrMetallicRoughness":{
				"baseColorFactor":[
					0.09285283833742142,
					0.09285283833742142,
					0.09285283833742142,
					1
				],
				"metallicFactor":0,
				"roughnessFactor":0.5
			}
		}
	],
	"meshes":[
		{
			"name":"Cube.001",
			"primitives":[
				{
					"attributes":{
						"POSITION":0,
						"NORMAL":1,
						"TEXCOORD_0":2
					},
					"indices":3
				}
			]
		},
		{
			"name":"Cube.009",
			"primitives":[
				{
					"attributes":{
						"POSITION":4,
						"NORMAL":5,
						"TEXCOORD_0":6
					},
					"indices":3
				}
			]
		},
		{
			"name":"Cube.003",
			"primitives":[
				{
					"attributes":{
						"POSITION":7,
						"NORMAL":8,
						"TEXCOORD_0":9
					},
					"indices":3
				}
			]
		},
		{
			"name":"Cube.004",
			"primitives":[
				{
					"attributes":{
						"POSITION":10,
						"NORMAL":11,
						"TEXCOORD_0":12
					},
					"indices":3
				}
			]
		},
		{
			"name":"Cube.005",
			"primitives":[
				{
					"attributes":{
						"POSITION":13,
						"NORMAL":14,
						"TEXCOORD_0":15
					},
					"indices":3
				}
			]
		},
		{
			"name":"Cube.006",
			"primitives":[
				{
					"attributes":{
						"POSITION":16,
						"NORMAL":17,
						"TEXCOORD_0":18
					},
					"indices":3
				}
			]
		},
		{
			"name":"Cube.007",
			"primitives":[
				{
					"attributes":{
						"POSITION":19,
						"NORMAL":20,
						"TEXCOORD_0":21
					},
					"indices":22
				}
			]
		},
		{
			"name":"Cube.008",
			"primitives":[
				{
					"attributes":{
						"POSITION":23,
						"NORMAL":24,
						"TEXCOORD_0":25
					},
					"indices":3
				}
			]
		},
		{
			"name":"dude_mesh.001",
			"primitives":[
				{
					"attributes":{
						"POSITION":26,
						"NORMAL":27
					},
					"indices":28,
					"material":0
				}
			]
		},
		{
			"name":"dude_mesh.002",
			"primitives":[
				{
					"attributes":{
						"POSITION":29,
						"NORMAL":30
					},
					"indices":28,
					"material":0
				}
			]
		},
		{
			"name":"room_mesh",
			"primitives":[
				{
					"attributes":{
						"POSITION":31,
						"NORMAL":32,
						"TEXCOORD_0":33
					},
					"indices":34,
					"material":1
				}
			]
		},
		{
			"name":"Cube",
			"primitives":[
				{
					"attributes":{
						"POSITION":35,
						"NORMAL":36,
						"TEXCOORD_0":37
					},
					"indices":3
				}
			]
		}
	],
	"accessors":[
		{
			"bufferView":0,
			"componentType":5126,
			"count":24,
			"max":[
				1,
				1,
				1
			],
			"min":[
				-1,
				-1,
				-1
			],
			"type":"VEC3"
		},
		{
			"bufferView":1,
			"componentType":5126,
			"count":24,
			"type":"VEC3"
		},
		{
			"bufferView":2,
			"componentType":5126,
			"count":24,
			"type":"VEC2"
		},
		{
			"bufferView":3,
			"componentType":5123,
			"count":36,
			"type":"SCALAR"
		},
		{
			"bufferView":4,
			"componentType":5126,
			"count":24,
			"max":[
				1,
				1,
				1
			],
			"min":[
				-1,
				-1,
				-1
			],
			"type":"VEC3"
		},
		{
			"bufferView":5,
			"componentType":5126,
			"count":24,
			"type":"VEC3"
		},
		{
			"bufferView":6,
			"componentType":5126,
			"count":24,
			"type":"VEC2"
		},
		{
			"bufferView":7,
			"componentType":5126,
			"count":24,
			"max":[
				1,
				1,
				1
			],
			"min":[
				-1,
				-1,
				-1
			],
			"type":"VEC3"
		},
		{
			"bufferView":8,
			"componentType":5126,
			"count":24,
			"type":"VEC3"
		},
		{
			"bufferView":9,
			"componentType":5126,
			"count":24,
			"type":"VEC2"
		},
		{
			"bufferView":10,
			"componentType":5126,
			"count":24,
			"max":[
				1,
				1,
				1
			],
			"min":[
				-1,
				-1,
				-1
			],
			"type":"VEC3"
		},
		{
			"bufferView":11,
			"componentType":5126,
			"count":24,
			"type":"VEC3"
		},
		{
			"bufferView":12,
			"componentType":5126,
			"count":24,
			"type":"VEC2"
		},
		{
			"bufferView":13,
			"componentType":5126,
			"count":24,
			"max":[
				1,
				1,
				1
			],
			"min":[
				-1,
				-1,
				-1
			],
			"type":"VEC3"
		},
		{
			"bufferView":14,
			"componentType":5126,
			"count":24,
			"type":"VEC3"
		},
		{
			"bufferView":15,
			"componentType":5126,
			"count":24,
			"type":"VEC2"
		},
		{
			"bufferView":16,
			"componentType":5126,
			"count":24,
			"max":[
				1,
				1,
				1
			],
			"min":[
				-1,
				-1,
				-1
			],
			"type":"VEC3"
		},
		{
			"bufferView":17,
			"componentType":5126,
			"count":24,
			"type":"VEC3"
		},
		{
			"bufferView":18,
			"componentType":5126,
			"count":24,
			"type":"VEC2"
		},
		{
			"bufferView":19,
			"componentType":5126,
			"count":52,
			"max":[
				1,
				18.5999755859375,
				1
			],
			"min":[
				-2.2879700660705566,
				-1,
				-1
			],
			"type":"VEC3"
		},
		{
			"bufferView":20,
			"componentType":5126,
			"count":52,
			"type":"VEC3"
		},
		{
			"bufferView":21,
			"componentType":5126,
			"count":52,
			"type":"VEC2"
		},
		{
			"bufferView":22,
			"componentType":5123,
			"count":108,
			"type":"SCALAR"
		},
		{
			"bufferView":23,
			"componentType":5126,
			"count":24,
			"max":[
				1,
				1,
				1
			],
			"min":[
				-1,
				-1,
				-1
			],
			"type":"VEC3"
		},
		{
			"bufferView":24,
			"componentType":5126,
			"count":24,
			"type":"VEC3"
		},
		{
			"bufferView":25,
			"componentType":5126,
			"count":24,
			"type":"VEC2"
		},
		{
			"bufferView":26,
			"componentType":5126,
			"count":4944,
			"max":[
				0.46676045656204224,
				1.9988893270492554,
				0.1853792518377304
			],
			"min":[
				-0.46671223640441895,
				-0.000363137514796108,
				-0.18163341283798218
			],
			"type":"VEC3"
		},
		{
			"bufferView":27,
			"componentType":5126,
			"count":4944,
			"type":"VEC3"
		},
		{
			"bufferView":28,
			"componentType":5123,
			"count":29652,
			"type":"SCALAR"
		},
		{
			"bufferView":29,
			"componentType":5126,
			"count":4944,
			"max":[
				0.46676045656204224,
				1.9988893270492554,
				0.1853792518377304
			],
			"min":[
				-0.46671223640441895,
				-0.000363137514796108,
				-0.18163341283798218
			],
			"type":"VEC3"
		},
		{
			"bufferView":30,
			"componentType":5126,
			"count":4944,
			"type":"VEC3"
		},
		{
			"bufferView":31,
			"componentType":5126,
			"count":24,
			"max":[
				3,
				6,
				3
			],
			"min":[
				-3,
				0,
				-3
			],
			"type":"VEC3"
		},
		{
			"bufferView":32,
			"componentType":5126,
			"count":24,
			"type":"VEC3"
		},
		{
			"bufferView":33,
			"componentType":5126,
			"count":24,
			"type":"VEC2"
		},
		{
			"bufferView":34,
			"componentType":5123,
			"count":36,
			"type":"SCALAR"
		},
		{
			"bufferView":35,
			"componentType":5126,
			"count":24,
			"max":[
				1,
				1,
				1
			],
			"min":[
				-1,
				-1,
				-1
			],
			"type":"VEC3"
		},
		{
			"bufferView":36,
			"componentType":5126,
			"count":24,
			"type":"VEC3"
		},
		{
			"bufferView":37,
			"componentType":5126,
			"count":24,
			"type":"VEC2"
		}
	],
	"bufferViews":[
		{
			"buffer":0,
			"byteLength":288,
			"byteOffset":0,
			"target":34962
		},
		{
			"buffer":0,
			"byteLength":288,
			"byteOffset":288,
			"target":34962
		},
		{
			"buffer":0,
			"byteLength":192,
			"byteOffset":576,
			"target":34962
		},
		{
			"buffer":0,
			"byteLength":72,
			"byteOffset":768,
			"target":34963
		},
		{
			"buffer":0,
			"byteLength":288,
			"byteOffset":840,
			"target":34962
		},
		{
			"buffer":0,
			"byteLength":288,
			"byteOffset":1128,
			"target":34962
		},
		{
			"buffer":0,
			"byteLength":192,
			"byteOffset":1416,
			"target":34962
		},
		{
			"buffer":0,
			"byteLength":288,
			"byteOffset":1608,
			"target":34962
		},
		{
			"buffer":0,
			"byteLength":288,
			"byteOffset":1896,
			"target":34962
		},
		{
			"buffer":0,
			"byteLength":192,
			"byteOffset":2184,
			"target":34962
		},
		{
			"buffer":0,
			"byteLength":288,
			"byteOffset":2376,
			"target":34962
		},
		{
			"buffer":0,
			"byteLength":288,
			"byteOffset":2664,
			"target":34962
		},
		{
			"buffer":0,
			"byteLength":192,
			"byteOffset":2952,
			"target":34962
		},
		{
			"buffer":0,
			"byteLength":288,
			"byteOffset":3144,
			"target":34962
		},
		{
			"buffer":0,
			"byteLength":288,
			"byteOffset":3432,
			"target":34962
		},
		{
			"buffer":0,
			"byteLength":192,
			"byteOffset":3720,
			"target":34962
		},
		{
			"buffer":0,
			"byteLength":288,
			"byteOffset":3912,
			"target":34962
		},
		{
			"buffer":0,
			"byteLength":288,
			"byteOffset":4200,
			"target":34962
		},
		{
			"buffer":0,
			"byteLength":192,
			"byteOffset":4488,
			"target":34962
		},
		{
			"buffer":0,
			"byteLength":624,
			"byteOffset":4680,
			"target":34962
		},
		{
			"buffer":0,
			"byteLength":624,
			"byteOffset":5304,
			"target":34962
		},
		{
			"buffer":0,
			"byteLength":416,
			"byteOffset":5928,
			"target":34962
		},
		{
			"buffer":0,
			"byteLength":216,
			"byteOffset":6344,
			"target":34963
		},
		{
			"buffer":0,
			"byteLength":288,
			"byteOffset":6560,
			"target":34962
		},
		{
			"buffer":0,
			"byteLength":288,
			"byteOffset":6848,
			"target":34962
		},
		{
			"buffer":0,
			"byteLength":192,
			"byteOffset":7136,
			"target":34962
		},
		{
			"buffer":0,
			"byteLength":59328,
			"byteOffset":7328,
			"target":34962
		},
		{
			"buffer":0,
			"byteLength":59328,
			"byteOffset":66656,
			"target":34962
		},
		{
			"buffer":0,
			"byteLength":59304,
			"byteOffset":125984,
			"target":34963
		},
		{
			"buffer":0,
			"byteLength":59328,
			"byteOffset":185288,
			"target":34962
		},
		{
			"buffer":0,
			"byteLength":59328,
			"byteOffset":244616,
			"target":34962
		},
		{
			"buffer":0,
			"byteLength":288,
			"byteOffset":303944,
			"target":34962
		},
		{
			"buffer":0,
			"byteLength":288,
			"byteOffset":304232,
			"target":34962
		},
		{
			"buffer":0,
			"byteLength":192,
			"byteOffset":304520,
			"target":34962
		},
		{
			"buffer":0,
			"byteLength":72,
			"byteOffset":304712,
			"target":34963
		},
		{
			"buffer":0,
			"byteLength":288,
			"byteOffset":304784,
			"target":34962
		},
		{
			"buffer":0,
			"byteLength":288,
			"byteOffset":305072,
			"target":34962
		},
		{
			"buffer":0,
			"byteLength":192,
			"byteOffset":305360,
			"target":34962
		}
	],
	"buffers":[
		{
			"byteLength":305552,
			"uri":"data:application/octet-stream;base64,"
		}
	]
}
