{
	"asset":{
		"generator":"Khronos glTF Blender I/O v3.6.27",
		"version":"2.0"
	},
	"scene":0,
	"scenes":[
		{
			"name":"Scene",
			"nodes":[
				0
			]
		}
	],
	"nodes":[
		{
			"mesh":0,
			"name":"record_player"
		}
	],
	"meshes":[
		{
			"name":"record_player.001",
			"primitives":[
				{
					"attributes":{
						"POSITION":0,
						"NORMAL":1,
						"TEXCOORD_0":2
					},
					"indices":3
				}
			]
		}
	],
	"accessors":[
		{
			"bufferView":0,
			"componentType":5126,
			"count":618,
			"max":[
				-2.3960137367248535,
				1.2834700345993042,
				-0.6792137622833252
			],
			"min":[
				-2.8960137367248535,
				1,
				-1.1792137622833252
			],
			"type":"VEC3"
		},
		{
			"bufferView":1,
			"componentType":5126,
			"count":618,
			"type":"VEC3"
		},
		{
			"bufferView":2,
			"componentType":5126,
			"count":618,
			"type":"VEC2"
		},
		{
			"bufferView":3,
			"componentType":5123,
			"count":1176,
			"type":"SCALAR"
		}
	],
	"bufferViews":[
		{
			"buffer":0,
			"byteLength":7416,
			"byteOffset":0,
			"target":34962
		},
		{
			"buffer":0,
			"byteLength":7416,
			"byteOffset":7416,
			"target":34962
		},
		{
			"buffer":0,
			"byteLength":4944,
			"byteOffset":14832,
			"target":34962
		},
		{
			"buffer":0,
			"byteLength":2352,
			"byteOffset":19776,
			"target":34963
		}
	],
	"buffers":[
		{
			"byteLength":22128,
			"uri":"data:application/octet-stream;base64,"
		}
	]
}
